<svg version="1.1" id="レイヤー_1" xmlns="http://www.w3.org/2000/svg" x="0" y="0" viewBox="0 0 482 147" xml:space="preserve"><style type="text/css">.st0{fill:none}.st1{fill:#ed6366}.st2{fill:#fff}</style><path class="st0" d="M43.4 74.8h3.9v1.8h-3.9zM38.9 74.8h3.8v1.8h-3.8zM43.4 77.2h3.9v1.9h-3.9z"/><path class="st0" d="M57.5 19.5c-29.8 0-54 24.2-54 54s24.2 54 54 54 54-24.2 54-54-24.2-54-54-54zm-5.6 49.8h2.4c-.4-.8-.9-1.5-1.4-2.1l.6-.3c.6.6 1.1 1.3 1.5 2.1l-.3.2h3.4c-.3-.9-.7-1.7-1.2-2.4l.6-.2c.5.8.9 1.6 1.2 2.4l-.5.2H61c.7-.8 1.3-1.6 1.8-2.5l.7.3c-.5.8-1.1 1.5-1.7 2.2h2.5v3.2h-.7v-2.5h-11v2.6h-.7v-3.2zm-15.8 3.5c.4-.1.9-.2 1.4-.3l-.1-4.6.7.2c1.3-.3 2.5-.7 3.7-1.2l.6.5c-1.4.5-2.8.9-4.2 1.2l.1 3.6c.9-.3 2-.5 3-.8-.4-.6-.8-1.1-1.3-1.5l.6-.2c.9.8 1.7 1.7 2.2 2.8l-.9.4c-.1-.3-.2-.5-.4-.8-1.8.5-3.8 1-5.2 1.4l-.2-.7zM48 80.2h-.7v-.5h-8.4v.6h-.7v-6.1H48v6zm.6-7.5c-.2.2-.5.3-.8.3-.4.1-1 0-1.7 0 0-.2-.1-.4-.2-.6.7.1 1.4.1 1.6.1s.4-.1.5-.2c.2-.2.4-1.3.5-4.1h-2.7c-.3 2.5-1 4.4-3.2 5.4-.2-.2-.3-.4-.5-.5 2.1-.9 2.7-2.7 2.9-4.9h-2v-.6h6.1s0 .4.1.2c-.1 3.4-.3 4.5-.6 4.9zm16 3.3h-6.2v3.5c.1.4-.2.7-.6.8-.9.1-1.8.1-2.7.1 0-.3-.2-.5-.3-.7h2.5c.4 0 .4-.1.4-.3v-3.5h-6.2v-.7h6.2V74h.4c1-.4 1.9-1 2.7-1.6h-6.9v-.7h7.9l.5.4c-1.2 1-2.5 1.8-3.9 2.4v.7h6.2v.8zm7.6 4.2c-.7.1-1.4.2-2.1.1-.1-.3-.2-.5-.3-.7h1.8c.2 0 .3-.1.3-.3v-2.4h-3.8v3.4h-.7v-8.9h5.2l.1 8c0 .3-.2.7-.5.8zm5.8 0c-.8.1-1.5.1-2.3.1-.1-.2-.2-.5-.3-.7h2.1c.2 0 .3-.1.3-.3V71h.7v8.3c.1.4-.1.8-.5.9zm-3.2-2.6v-6.1h.7v6.1h-.7zm4.8-7.7H66.4v-.7h4c-.4-.8-.9-1.5-1.5-2.2l.6-.3c.6.7 1.2 1.4 1.6 2.2l-.7.3h4.7c.6-.9 1.1-1.7 1.5-2.6l.8.3c-.5.8-1 1.6-1.5 2.3h3.7v.7z"/><path class="st0" d="M38.9 77.2h3.8v1.9h-3.8zM68.1 72h3.8v1.8h-3.8zM68.1 74.5h3.8v1.8h-3.8zM208.4 77.2h3.9v1.9h-3.9zM203.9 74.8h3.8v1.8h-3.8zM232.8 70.2h4.8v4.4h-4.8zM238.4 70.2h4.8v4.4h-4.8zM203.9 77.2h3.8v1.9h-3.8zM208.4 74.8h3.9v1.8h-3.9z"/><path class="st1" d="M410 66.6h-14V81h14V66.6zm-1.1 12.7h-11.7v-1.7h4.8v-3.3h-3.9v-1.7h3.9v-2.7h-4.5v-1.8h11v1.8h-4.6v2.7h4.1v1.7h-4.1v3.3h3.1c-.6-.9-1.3-1.7-2-2.4l1.3-.7c.7.7 1.4 1.5 2 2.3l-1.3.8h1.9v1.7zM384.8 73.7h4v1.8h-4zM379.3 73.7h3.6v1.8h-3.6zM428 79.2c1-.7 1.8-1.6 2.5-2.6h-5c.7 1.1 1.5 1.9 2.5 2.6z"/><path class="st1" d="M420.1 141.2c18.1-4.5 33.4-15.7 43-31.7 9.6-16 12.5-34.7 8-52.8-9.2-37.4-47.1-60.3-84.5-51-4.4 1.1-8.5 2.6-12.5 4.4-22.6 12.4-37.9 36.3-37.9 63.9 0 22.6 10.3 42.7 26.4 56.1 1.5 1.1 3.1 2.1 4.7 3.1 16 9.6 34.7 12.5 52.8 8zm2.4-75c.4.2.9.5 1.3.8 1-1 1.8-2.1 2.6-3.3l1.8.9c-.9 1.1-2 2.4-3 3.3.6.4 1.2.9 1.7 1.4 1.3-1.2 2.5-2.6 3.7-4l1.8 1c-1.8 1.9-3.7 3.7-5.7 5.4 1.6 0 3.3-.1 5-.1-.5-.6-.9-1.2-1.4-1.7l1.6-.9c1.4 1.5 2.6 3.1 3.5 4.8l-1.7 1-.9-1.5c-1.6.1-3.3.2-4.9.2-.4.6-.7 1.1-1.1 1.6h4.7l.4-.1 1.2.4c-.8 1.8-2 3.5-3.6 4.7 1.8.9 3.8 1.6 5.8 1.9-.5.6-.9 1.2-1.2 1.8-2.2-.4-4.3-1.3-6.2-2.5-2 1.3-4.2 2.1-6.5 2.6-.2-.6-.6-1.2-1-1.7 2.1-.3 4-1 5.9-2-.8-.7-1.6-1.5-2.2-2.4-.7.6-1.5 1.2-2.3 1.7-.4-.5-.9-1.1-1.4-1.5 2-1 3.8-2.5 5.2-4.4-1.8 0-3.4.1-4.8.1l-.2-1.8h3.4c.4-.4.9-.7 1.3-1.1-1.2-1.2-2.5-2.3-4-3.3l1.2-1.3zm-3.2-2.4l1.8.7c-1.4 2.1-3.2 3.8-5.2 5.3-.3-.5-.7-1-1.1-1.5 1.8-1.2 3.3-2.7 4.5-4.5zm.4 4.5l1.8.6c-.6 1-1.1 1.9-1.8 2.8v12.4h-1.9v-10c-.7.7-1.4 1.4-2.2 2-.3-.7-.7-1.3-1.1-1.9 2.1-1.6 3.9-3.6 5.2-5.9zm-25.8-3.6h18.3v19.2H410v-1.1h-14v1.1h-2.1V64.7zm-15.2 4.9h8.5v-1.2h-7.7V67h7.7v-1.2h-8.3v-1.5h10.2v6.8h-10.4v-1.5zm-1.2 2.5h13.2l.1 3.7h-1.5v4.7c.1.6-.1 1.3-.7 1.6-.8.3-1.6.4-2.4.3-.1-.6-.2-1.2-.5-1.7h1.5c.1 0 .2-.2.2-.3v-3.2h-2.5v6.7H383v-6.7h-2.3v5.3h-1.8v-6.7h-1.4v-3.7zm-2.4.4v-8.7h1.9v8.7c0 4.3-.4 8.4-3.7 11.4-.5-.5-1-.9-1.5-1.3 2.9-2.6 3.3-6.3 3.3-10.1zm-3.3-6.2h1.7v10.3h-1.7V66.3z"/><path class="st1" d="M409 1.2c-2.7 0-5.3.2-8 .4 33.1-1.1 63.8 21 72.1 54.6 4.6 18.6 1.7 37.9-8.2 54.3-9.9 16.4-25.6 28-44.2 32.6-5.8 1.5-11.6 2.2-17.4 2.2-5.5 0-11-.7-16.4-1.9 7 2.2 14.4 3.4 22.1 3.4 40.2 0 72.8-32.6 72.8-72.8 0-40.2-32.6-72.8-72.8-72.8z"/><path class="st2" d="M335.6 90.2c-.1-.5-.7-.8-1.2-.7s-.8.7-.7 1.2c4.6 18.6 16.2 34.3 32.6 44.2 6.5 3.9 13.4 6.8 20.6 8.5-9-2.9-17.2-7.4-24.3-13.3-13.5-9.7-23-23.6-27-39.9zM386.2 3.7c-25.6 6.3-45.7 26.1-52.3 51.7-.4 2.1-.7 4.3-.9 6.4-.1.6.3 1.1.9 1.1.6.1 1.1-.3 1.1-.9.1-2.1.4-4.1.8-6.1 5.3-20.5 19.5-37.1 38.3-45.8 8.2-4.5 17.3-7.4 27-8.5-5 .2-9.9.9-14.9 2.1z"/><path class="st2" d="M420.7 143.1c18.6-4.6 34.3-16.2 44.2-32.6 9.9-16.4 12.8-35.7 8.2-54.3C464.8 22.7 434.2.5 401 1.6c-9.7 1.1-18.8 4-27 8.5 4-1.8 8.2-3.3 12.5-4.4 37.4-9.3 75.3 13.6 84.5 51 4.5 18.1 1.6 36.8-8 52.8s-24.9 27.2-43 31.7-36.8 1.6-52.8-8c-1.6-1-3.2-2-4.7-3.1 7.1 5.9 15.3 10.4 24.3 13.3 5.4 1.3 10.9 1.9 16.4 1.9 5.9 0 11.7-.7 17.5-2.2z"/><path class="st2" d="M389.1 64.3h-10.2v1.5h8.3V67h-7.7v1.4h7.7v1.2h-8.5v1.5h10.4zM371.8 82.6c.5.4 1 .8 1.5 1.3 3.3-3 3.7-7.1 3.7-11.4v-8.7h-1.9v8.7c0 3.8-.4 7.5-3.3 10.1z"/><path class="st2" d="M371.8 66.3h1.7v10.3h-1.7zM396 82.8h14v1.1h2.2V64.7h-18.3v19.2h2.1v-1.1zm0-16.2h14V81h-14V66.6zM378.9 82.5h1.8v-5.3h2.3v6.7h1.9v-6.7h2.5v3.2c0 .1-.1.3-.2.3h-1.5c.3.5.4 1.1.5 1.7.8.1 1.6 0 2.4-.3.6-.3.8-1 .7-1.6v-4.7h1.5l-.1-3.7h-13.2v3.7h1.4v6.7zm5.9-8.8h4v1.8h-4v-1.8zm-5.5 0h3.6v1.8h-3.6v-1.8zM417.8 74.1v10h1.9V71.7c.7-.9 1.2-1.8 1.8-2.8l-1.8-.6c-1.3 2.3-3.1 4.3-5.2 5.9.4.6.8 1.2 1.1 1.9.8-.6 1.5-1.3 2.2-2z"/><path class="st2" d="M424 71.9h-3.4l.2 1.8c1.4 0 3-.1 4.8-.1-1.4 1.9-3.2 3.4-5.2 4.4.5.4 1 1 1.4 1.5.8-.5 1.6-1.1 2.3-1.7.6.9 1.4 1.7 2.2 2.4-1.9 1-3.8 1.7-5.9 2 .4.5.8 1.1 1 1.7 2.3-.5 4.5-1.3 6.5-2.6 1.9 1.2 4 2.1 6.2 2.5.3-.6.7-1.2 1.2-1.8-2-.3-4-1-5.8-1.9 1.6-1.2 2.8-2.9 3.6-4.7l-1.2-.4-.4.1h-4.7c.4-.5.7-1 1.1-1.6 1.6 0 3.3-.1 4.9-.2l.9 1.5 1.7-1c-.9-1.7-2.1-3.3-3.5-4.8l-1.6.9c.5.5.9 1.1 1.4 1.7-1.7 0-3.4.1-5 .1 2-1.7 3.9-3.5 5.7-5.4l-1.8-1c-1.2 1.4-2.4 2.8-3.7 4-.5-.5-1.1-1-1.7-1.4 1-.9 2.1-2.2 3-3.3l-1.8-.9c-.8 1.2-1.6 2.3-2.6 3.3-.4-.3-.9-.6-1.3-.8l-1.2 1.3c1.5 1 2.8 2.1 4 3.3-.4.4-.9.7-1.3 1.1zm6.5 4.7c-.7 1-1.5 1.9-2.5 2.6-1-.7-1.8-1.5-2.5-2.6h5zM421.1 64.5l-1.8-.7c-1.2 1.8-2.7 3.3-4.5 4.5.4.5.8 1 1.1 1.5 2-1.5 3.8-3.2 5.2-5.3zM403.9 77.6v-3.3h4.1v-1.7h-4.1v-2.7h4.6v-1.8h-11v1.8h4.5v2.7h-3.9v1.7h3.9v3.3h-4.8v1.7h11.7v-1.7H407z"/><path class="st2" d="M406.3 74.5l-1.3.7c.7.7 1.4 1.5 2 2.4l1.3-.8c-.6-.8-1.3-1.6-2-2.3zM231.5 18.2c-14.8-2.3-29.6 1.2-41.7 10-12.1 8.8-20 21.7-22.4 36.5-.1.5.3 1 .8 1.1.5.1 1-.3 1.1-.8 2.2-14.2 9.9-26.7 21.6-35.2s26-11.9 40.2-9.6c29.4 4.7 49.5 32.4 44.8 61.8-2.2 14.2-9.9 26.7-21.6 35.2s-26 11.9-40.2 9.6c-23-3.7-41-21.6-44.8-44.5-.1-.5-.7-.9-1.2-.8s-.9.7-.8 1.2c3.9 23.8 22.6 42.3 46.4 46.1 3 .5 5.9.7 8.9.7 11.7 0 23.1-3.7 33-10.7 12.1-8.8 20-21.7 22.4-36.5 4.9-30.5-16-59.2-46.5-64.1z"/><path class="st2" d="M207.1 73.1c.2.1.3.3.4.5 2.2-1 2.9-2.9 3.2-5.4h2.7c-.1 2.8-.3 3.9-.5 4.1-.1.1-.3.2-.5.2s-.9 0-1.6-.1c.1.2.2.4.2.6.7 0 1.3.1 1.7 0 .3 0 .6-.1.8-.3.3-.4.5-1.5.6-4.9v-.2H208v.6h2c-.2 2.2-.8 4-2.9 4.9z"/><path class="st2" d="M201.3 73.6c1.4-.4 3.4-.9 5.2-1.4.2.3.3.5.4.8l.9-.5c-.5-1.1-1.3-2-2.2-2.8l-.6.3c.5.4.9.9 1.3 1.5-1 .3-2.1.5-3 .8l-.1-3.6c1.4-.3 2.8-.7 4.2-1.2l-.6-.5c-1.2.5-2.4.9-3.7 1.2l-.7-.2.1 4.6c-.5.1-1 .2-1.4.3l.2.7zM216.4 75.9h6.2v3.5c0 .2 0 .3-.4.3h-2.5c.1.2.3.4.3.7.9 0 1.8 0 2.7-.1.4-.1.7-.4.6-.8V76h6.2l.1-.8h-6.2v-.7c1.4-.6 2.7-1.4 3.9-2.4l-.5-.4h-7.9v.7h6.9c-.9.7-1.8 1.2-2.8 1.6h-.4v1.2h-6.2v.7zM237.7 66.7v2.7h-5.6v6.8h.7v-1h4.8v5h.7v-5h4.8v.9h.7v-6.8l-5.4.1v-2.7h-.7zm-.1 7.9h-4.8v-4.4h4.8v4.4zm5.6-4.4v4.4h-4.8v-4.4h4.8z"/><path class="st2" d="M216.9 72.5h.7v-2.6h11v2.5h.7v-3.2h-2.5c.6-.7 1.2-1.4 1.7-2.2l-.7-.3c-.5.9-1.1 1.7-1.8 2.5h-2.8l.5-.2c-.3-.8-.7-1.6-1.2-2.4l-.6.2c.5.7.9 1.5 1.2 2.4h-3.4l.3-.2c-.4-.8-.9-1.5-1.5-2.1l-.6.3c.5.6 1 1.3 1.4 2.1h-2.4v3.2zM213 80.2v-6h-9.8v6.1h.7v-.6h8.4v.5h.7zm-4.6-5.4h3.9v1.8h-3.9v-1.8zm-.7 4.3h-3.8v-1.9h3.8v1.9zm0-2.5h-3.8v-1.8h3.8v1.8zm.7 2.5v-1.9h3.9v1.9h-3.9zM329 73.2h-7.5l-4.2-8.2c-.7-1.5-2.5-2-4-1.3-1.5.8-2 2.6-1.3 4.1l2.8 5.4h-6.5c-.1-.2-.2-.3-.4-.5l-3.8-3.9c-.8-.9-2.1-1.1-3.2-.7-1.1.5-1.8 1.6-1.8 2.8v5.2c0 1.7 1.3 3 3 3h12.8l-2.7 5.3c-.8 1.5-.2 3.3 1.3 4.1.4.2.9.3 1.4.3 1.1 0 2.1-.6 2.7-1.6l4.1-8.1h7.5c1.7-.1 2.9-1.5 2.8-3.2-.3-1.4-1.5-2.6-3-2.7zM284.3 73.8h3.7v3.7h-3.7zM291.2 73.8h3.7v3.7h-3.7zM57.5 17.5c-30.9 0-56 25.1-56 56s25.1 56 56 56 56-25.1 56-56-25.1-56-56-56zm0 110c-29.8 0-54-24.2-54-54s24.2-54 54-54 54 24.2 54 54-24.2 54-54 54z"/><path class="st2" d="M38.2 80.3h.7v-.6h8.4v.5h.7v-6h-9.8v6.1zm5.2-5.5h3.9v1.8h-3.9v-1.8zm0 2.4h3.9v1.9h-3.9v-1.9zm-4.5-2.4h3.8v1.8h-3.8v-1.8zm0 2.4h3.8v1.9h-3.8v-1.9zM41.9 72.9l.9-.4c-.5-1.1-1.3-2-2.2-2.8l-.6.2c.5.4.9.9 1.3 1.5-1 .3-2.1.5-3 .8l-.1-3.6c1.4-.3 2.8-.7 4.2-1.2l-.6-.5c-1.2.5-2.4.9-3.7 1.2l-.7-.2.1 4.6c-.5.1-1 .2-1.4.3l.2.7c1.4-.4 3.4-.9 5.2-1.4.2.3.3.5.4.8zM52.6 69.9h11v2.5h.7v-3.2h-2.5c.6-.7 1.2-1.4 1.7-2.2l-.7-.3c-.5.9-1.1 1.7-1.8 2.5h-2.8l.5-.2c-.3-.8-.7-1.6-1.2-2.4l-.6.2c.5.7.9 1.5 1.2 2.4h-3.4l.3-.2c-.4-.8-.9-1.5-1.5-2.1l-.6.3c.5.6 1 1.3 1.4 2.1h-2.4v3.2h.7v-2.6z"/><path class="st2" d="M49.1 67.6H43v.6h2c-.2 2.2-.8 4-2.9 4.9.2.1.3.3.5.5 2.2-1 2.9-2.9 3.2-5.4h2.7c-.1 2.8-.3 3.9-.5 4.1-.1.1-.3.2-.5.2s-.9 0-1.6-.1c.1.2.2.4.2.6.7 0 1.3.1 1.7 0 .3 0 .6-.1.8-.3.3-.4.5-1.5.6-4.9-.1.2-.1-.2-.1-.2zM74.8 71.5h.7v6.1h-.7zM77.4 66.9l-.8-.3c-.4.9-.9 1.7-1.5 2.6h-4.7l.7-.3c-.4-.8-1-1.5-1.6-2.2l-.6.3c.6.7 1.1 1.4 1.5 2.2h-4v.7h13.2v-.7h-3.7c.5-.7 1-1.5 1.5-2.3zM78.5 71h-.7v8.3c0 .2-.1.3-.3.3h-2.1c.1.2.2.5.3.7.8 0 1.5 0 2.3-.1.4-.1.6-.5.5-.9V71zM67.4 71.4v8.9h.7v-3.4h3.8v2.4c0 .2-.1.3-.3.3h-1.8c.1.2.2.4.3.7.7.1 1.4 0 2.1-.1.3-.1.5-.5.5-.8l-.1-8h-5.2zm4.5 4.9h-3.8v-1.8h3.8v1.8zm0-2.5h-3.8V72h3.8v1.8zM58.4 74.5c1.4-.6 2.7-1.4 3.9-2.4l-.5-.4h-7.9v.7h6.9c-.8.6-1.7 1.2-2.7 1.6h-.4v1.2h-6.2v.7h6.2v3.5c0 .2 0 .3-.4.3h-2.5c.1.2.3.4.3.7.9 0 1.8 0 2.7-.1.4-.1.7-.4.6-.8V76h6.2v-.8h-6.2v-.7zM170.7 75.6c-.5-1.2-1.5-2.2-2.7-2.4h-7.5l-4.2-8.2c-.7-1.5-2.5-2-4-1.3-1.5.8-2 2.6-1.3 4.1l2.8 5.4h-6.5c-.1-.2-.2-.3-.4-.5l-3.8-3.9c-.8-.9-2.1-1.1-3.2-.7-1.1.5-1.8 1.6-1.8 2.8v5.2c0 1.7 1.3 3 3 3h12.8l-2.7 5.3c-.8 1.5-.2 3.3 1.3 4.1.4.2.9.3 1.4.3 1.1 0 2.1-.6 2.7-1.6l4.1-8.1h7.5c1.6-.3 2.7-1.9 2.5-3.5zM122.5 73.8h3.7v3.7h-3.7zM129.4 73.8h3.7v3.7h-3.7z"/></svg>