<?xml version="1.0" encoding="utf-8"?>
<!-- Generator: Adobe Illustrator 21.0.0, SVG Export Plug-In . SVG Version: 6.00 Build 0)  -->
<!DOCTYPE svg PUBLIC "-//W3C//DTD SVG 1.1//EN" "http://www.w3.org/Graphics/SVG/1.1/DTD/svg11.dtd">
<svg version="1.1" id="レイヤー_1" xmlns="http://www.w3.org/2000/svg" xmlns:xlink="http://www.w3.org/1999/xlink" x="0px"
	 y="0px" viewBox="0 0 482 147" style="enable-background:new 0 0 482 147;" xml:space="preserve">
<style type="text/css">
	.st0{fill:none;}
	.st1{fill:#ED6366;}
	.st2{fill:#FFFFFF;}
</style>
<g>
	<rect x="43.4" y="74.8" class="st0" width="3.9" height="1.8"/>
	<rect x="38.9" y="74.8" class="st0" width="3.8" height="1.8"/>
	<rect x="43.4" y="77.2" class="st0" width="3.9" height="1.9"/>
	<path class="st0" d="M57.5,19.5c-29.8,0-54,24.2-54,54s24.2,54,54,54s54-24.2,54-54S87.3,19.5,57.5,19.5z M51.9,69.3h2.4
		c-0.4-0.8-0.9-1.5-1.4-2.1l0.6-0.3c0.6,0.6,1.1,1.3,1.5,2.1l-0.3,0.2h3.4c-0.3-0.9-0.7-1.7-1.2-2.4l0.6-0.2
		c0.5,0.8,0.9,1.6,1.2,2.4l-0.5,0.2H61c0.7-0.8,1.3-1.6,1.8-2.5l0.7,0.3c-0.5,0.8-1.1,1.5-1.7,2.2h2.5v3.2h-0.7v-2.5h-11
		c0,0,0,2.5,0,2.6h-0.7V69.3z M36.1,72.8c0.4-0.1,0.9-0.2,1.4-0.3l-0.1-4.6l0.7,0.2c1.3-0.3,2.5-0.7,3.7-1.2l0.6,0.5
		c-1.4,0.5-2.8,0.9-4.2,1.2l0.1,3.6c0.9-0.3,2-0.5,3-0.8c-0.4-0.6-0.8-1.1-1.3-1.5l0.6-0.2c0.9,0.8,1.7,1.7,2.2,2.8l-0.9,0.4
		c-0.1-0.3-0.2-0.5-0.4-0.8c-1.8,0.5-3.8,1-5.2,1.4L36.1,72.8z M48,80.2h-0.7v-0.5h-8.4v0.6h-0.7v-6.1H48V80.2z M48.6,72.7
		c-0.2,0.2-0.5,0.3-0.8,0.3c-0.4,0.1-1,0-1.7,0c0-0.2-0.1-0.4-0.2-0.6c0.7,0.1,1.4,0.1,1.6,0.1s0.4-0.1,0.5-0.2
		c0.2-0.2,0.4-1.3,0.5-4.1h-2.7c-0.3,2.5-1,4.4-3.2,5.4c-0.2-0.2-0.3-0.4-0.5-0.5c2.1-0.9,2.7-2.7,2.9-4.9h-2v-0.6h6.1
		c0,0,0,0.4,0.1,0.2C49.1,71.2,48.9,72.3,48.6,72.7z M64.6,76h-6.2v3.5c0.1,0.4-0.2,0.7-0.6,0.8c-0.9,0.1-1.8,0.1-2.7,0.1
		c0-0.3-0.2-0.5-0.3-0.7c1.3,0,2.1,0,2.5,0c0.4,0,0.4-0.1,0.4-0.3v-3.5h-6.2v-0.7h6.2V74h0.4c1-0.4,1.9-1,2.7-1.6h-6.9v-0.7h7.7h0.2
		l0.5,0.4c-1.2,1-2.5,1.8-3.9,2.4v0.7h6.2V76z M72.2,80.2c-0.7,0.1-1.4,0.2-2.1,0.1c-0.1-0.3-0.2-0.5-0.3-0.7c0.9,0,1.6,0,1.8,0
		c0.2,0,0.3-0.1,0.3-0.3v-2.4h-3.8v3.4h-0.7v-8.9h5.2l0.1,8C72.7,79.7,72.5,80.1,72.2,80.2z M78,80.2c-0.8,0.1-1.5,0.1-2.3,0.1
		c-0.1-0.2-0.2-0.5-0.3-0.7c1,0,1.9,0,2.1,0s0.3-0.1,0.3-0.3V71h0.7v8.3C78.6,79.7,78.4,80.1,78,80.2z M74.8,77.6v-6.1h0.7v6.1H74.8
		z M79.6,69.9H66.4v-0.7h4c-0.4-0.8-0.9-1.5-1.5-2.2l0.6-0.3c0.6,0.7,1.2,1.4,1.6,2.2l-0.7,0.3h4.7c0.6-0.9,1.1-1.7,1.5-2.6l0.8,0.3
		c-0.5,0.8-1,1.6-1.5,2.3l3.7,0V69.9z"/>
	<rect x="38.9" y="77.2" class="st0" width="3.8" height="1.9"/>
	<rect x="68.1" y="72" class="st0" width="3.8" height="1.8"/>
	<rect x="68.1" y="74.5" class="st0" width="3.8" height="1.8"/>
	<rect x="208.4" y="77.2" class="st0" width="3.9" height="1.9"/>
	<rect x="203.9" y="74.8" class="st0" width="3.8" height="1.8"/>
	<rect x="232.8" y="70.2" class="st0" width="4.8" height="4.4"/>
	<rect x="238.4" y="70.2" class="st0" width="4.8" height="4.4"/>
	<rect x="203.9" y="77.2" class="st0" width="3.8" height="1.9"/>
	<rect x="208.4" y="74.8" class="st0" width="3.9" height="1.8"/>
	<path class="st1" d="M410,66.6h-14V81h14V66.6z M408.9,79.3h-11.7v-1.7h4.8v-3.3h-3.9v-1.7h3.9v-2.7h-4.5v-1.8h11v1.8h-4.6v2.7h4.1
		v1.7h-4.1v3.3h3.1c-0.6-0.9-1.3-1.7-2-2.4l1.3-0.7c0.7,0.7,1.4,1.5,2,2.3l-1.3,0.8h1.9V79.3z"/>
	<rect x="384.8" y="73.7" class="st1" width="4" height="1.8"/>
	<rect x="379.3" y="73.7" class="st1" width="3.6" height="1.8"/>
	<path class="st1" d="M428,79.2c1-0.7,1.8-1.6,2.5-2.6h-5C426.2,77.7,427,78.5,428,79.2z"/>
	<path class="st1" d="M420.1,141.2c18.1-4.5,33.4-15.7,43-31.7c9.6-16,12.5-34.7,8-52.8c-9.2-37.4-47.1-60.3-84.5-51
		c-4.4,1.1-8.5,2.6-12.5,4.4c-22.6,12.4-37.9,36.3-37.9,63.9c0,22.6,10.3,42.7,26.4,56.1c1.5,1.1,3.1,2.1,4.7,3.1
		C383.3,142.8,402,145.7,420.1,141.2z M422.5,66.2c0.4,0.2,0.9,0.5,1.3,0.8c1-1,1.8-2.1,2.6-3.3l1.8,0.9c-0.9,1.1-2,2.4-3,3.3
		c0.6,0.4,1.2,0.9,1.7,1.4c1.3-1.2,2.5-2.6,3.7-4l1.8,1c-1.8,1.9-3.7,3.7-5.7,5.4c1.6,0,3.3-0.1,5-0.1c-0.5-0.6-0.9-1.2-1.4-1.7
		l1.6-0.9c1.4,1.5,2.6,3.1,3.5,4.8l-1.7,1c-0.3-0.5-0.6-1-0.9-1.5c-1.6,0.1-3.3,0.2-4.9,0.2c-0.4,0.6-0.7,1.1-1.1,1.6h4.7l0.4-0.1
		l1.2,0.4c-0.8,1.8-2,3.5-3.6,4.7c1.8,0.9,3.8,1.6,5.8,1.9c-0.5,0.6-0.9,1.2-1.2,1.8c-2.2-0.4-4.3-1.3-6.2-2.5
		c-2,1.3-4.2,2.1-6.5,2.6c-0.2-0.6-0.6-1.2-1-1.7c2.1-0.3,4-1,5.9-2c-0.8-0.7-1.6-1.5-2.2-2.4c-0.7,0.6-1.5,1.2-2.3,1.7
		c-0.4-0.5-0.9-1.1-1.4-1.5c2-1,3.8-2.5,5.2-4.4c-1.8,0-3.4,0.1-4.8,0.1l-0.2-1.8c1,0,2.1,0,3.4,0c0.4-0.4,0.9-0.7,1.3-1.1
		c-1.2-1.2-2.5-2.3-4-3.3L422.5,66.2z M419.3,63.8l1.8,0.7c-1.4,2.1-3.2,3.8-5.2,5.3c-0.3-0.5-0.7-1-1.1-1.5
		C416.6,67.1,418.1,65.6,419.3,63.8z M419.7,68.3l1.8,0.6c-0.6,1-1.1,1.9-1.8,2.8v12.4h-1.9v-10c-0.7,0.7-1.4,1.4-2.2,2
		c-0.3-0.7-0.7-1.3-1.1-1.9C416.6,72.6,418.4,70.6,419.7,68.3z M393.9,64.7h18.3v19.2H410v-1.1h-14v1.1h-2.1V64.7z M378.7,69.6h8.5
		v-1.2h-7.7V67h7.7v-1.2h-8.3v-1.5h10.2l0,6.8h-10.4V69.6z M377.5,72.1h13.2l0.1,3.7h-1.5v4.7c0.1,0.6-0.1,1.3-0.7,1.6
		c-0.8,0.3-1.6,0.4-2.4,0.3c-0.1-0.6-0.2-1.2-0.5-1.7c0.7,0,1.2,0,1.4,0h0.1c0.1,0,0.2-0.2,0.2-0.3v-3.2h-2.5v6.7H383v-6.7h-2.3v5.3
		h-1.8v-6.7h-1.4V72.1z M375.1,72.5v-8.7h1.9v8.7c0,4.3-0.4,8.4-3.7,11.4c-0.5-0.5-1-0.9-1.5-1.3C374.7,80,375.1,76.3,375.1,72.5z
		 M371.8,66.3h1.7v10.3h-1.7V66.3z"/>
	<path class="st1" d="M409,1.2c-2.7,0-5.3,0.2-8,0.4c33.1-1.1,63.8,21,72.1,54.6c4.6,18.6,1.7,37.9-8.2,54.3
		c-9.9,16.4-25.6,28-44.2,32.6c-5.8,1.5-11.6,2.2-17.4,2.2c-5.5,0-11-0.7-16.4-1.9c7,2.2,14.4,3.4,22.1,3.4
		c40.2,0,72.8-32.6,72.8-72.8C481.8,33.8,449.2,1.2,409,1.2z"/>
	<path class="st2" d="M335.6,90.2c-0.1-0.5-0.7-0.8-1.2-0.7s-0.8,0.7-0.7,1.2c4.6,18.6,16.2,34.3,32.6,44.2
		c6.5,3.9,13.4,6.8,20.6,8.5c-9-2.9-17.2-7.4-24.3-13.3C349.1,120.4,339.6,106.5,335.6,90.2z"/>
	<path class="st2" d="M386.2,3.7c-25.6,6.3-45.7,26.1-52.3,51.7c-0.4,2.1-0.7,4.3-0.9,6.4c-0.1,0.6,0.3,1.1,0.9,1.1
		c0.6,0.1,1.1-0.3,1.1-0.9c0.1-2.1,0.4-4.1,0.8-6.1c5.3-20.5,19.5-37.1,38.3-45.8c8.2-4.5,17.3-7.4,27-8.5
		C396.1,1.8,391.2,2.5,386.2,3.7z"/>
	<path class="st2" d="M420.7,143.1c18.6-4.6,34.3-16.2,44.2-32.6c9.9-16.4,12.8-35.7,8.2-54.3C464.8,22.7,434.2,0.5,401,1.6
		c-9.7,1.1-18.8,4-27,8.5c4-1.8,8.2-3.3,12.5-4.4c37.4-9.3,75.3,13.6,84.5,51c4.5,18.1,1.6,36.8-8,52.8c-9.6,16-24.9,27.2-43,31.7
		s-36.8,1.6-52.8-8c-1.6-1-3.2-2-4.7-3.1c7.1,5.9,15.3,10.4,24.3,13.3c5.4,1.3,10.9,1.9,16.4,1.9
		C409.1,145.3,414.9,144.6,420.7,143.1z"/>
	<polygon class="st2" points="389.1,64.3 378.9,64.3 378.9,65.8 387.2,65.8 387.2,67 379.5,67 379.5,68.4 387.2,68.4 387.2,69.6 
		378.7,69.6 378.7,71.1 389.1,71.1 	"/>
	<path class="st2" d="M371.8,82.6c0.5,0.4,1,0.8,1.5,1.3c3.3-3,3.7-7.1,3.7-11.4v-8.7h-1.9v8.7C375.1,76.3,374.7,80,371.8,82.6z"/>
	<rect x="371.8" y="66.3" class="st2" width="1.7" height="10.3"/>
	<path class="st2" d="M396,82.8h14v1.1h2.2V64.7h-18.3v19.2h2.1V82.8z M396,66.6h14V81h-14V66.6z"/>
	<path class="st2" d="M378.9,82.5h1.8v-5.3h2.3v6.7h1.9v-6.7h2.5v3.2c0,0.1-0.1,0.3-0.2,0.3h-0.1c-0.2,0-0.7,0-1.4,0
		c0.3,0.5,0.4,1.1,0.5,1.7c0.8,0.1,1.6,0,2.4-0.3c0.6-0.3,0.8-1,0.7-1.6v-4.7h1.5l-0.1-3.7h-13.2v3.7h1.4V82.5z M384.8,73.7h4v1.8
		h-4V73.7z M379.3,73.7h3.6v1.8h-3.6V73.7z"/>
	<path class="st2" d="M417.8,74.1v10h1.9V71.7c0.7-0.9,1.2-1.8,1.8-2.8l-1.8-0.6c-1.3,2.3-3.1,4.3-5.2,5.9c0.4,0.6,0.8,1.2,1.1,1.9
		C416.4,75.5,417.1,74.8,417.8,74.1z"/>
	<path class="st2" d="M424,71.9c-1.3,0-2.4,0-3.4,0l0.2,1.8c1.4,0,3-0.1,4.8-0.1c-1.4,1.9-3.2,3.4-5.2,4.4c0.5,0.4,1,1,1.4,1.5
		c0.8-0.5,1.6-1.1,2.3-1.7c0.6,0.9,1.4,1.7,2.2,2.4c-1.9,1-3.8,1.7-5.9,2c0.4,0.5,0.8,1.1,1,1.7c2.3-0.5,4.5-1.3,6.5-2.6
		c1.9,1.2,4,2.1,6.2,2.5c0.3-0.6,0.7-1.2,1.2-1.8c-2-0.3-4-1-5.8-1.9c1.6-1.2,2.8-2.9,3.6-4.7l-1.2-0.4l-0.4,0.1h-4.7
		c0.4-0.5,0.7-1,1.1-1.6c1.6,0,3.3-0.1,4.9-0.2c0.3,0.5,0.6,1,0.9,1.5l1.7-1c-0.9-1.7-2.1-3.3-3.5-4.8l-1.6,0.9
		c0.5,0.5,0.9,1.1,1.4,1.7c-1.7,0-3.4,0.1-5,0.1c2-1.7,3.9-3.5,5.7-5.4l-1.8-1c-1.2,1.4-2.4,2.8-3.7,4c-0.5-0.5-1.1-1-1.7-1.4
		c1-0.9,2.1-2.2,3-3.3l-1.8-0.9c-0.8,1.2-1.6,2.3-2.6,3.3c-0.4-0.3-0.9-0.6-1.3-0.8l-1.2,1.3c1.5,1,2.8,2.1,4,3.3
		C424.9,71.2,424.4,71.5,424,71.9z M430.5,76.6c-0.7,1-1.5,1.9-2.5,2.6c-1-0.7-1.8-1.5-2.5-2.6H430.5z"/>
	<path class="st2" d="M421.1,64.5l-1.8-0.7c-1.2,1.8-2.7,3.3-4.5,4.5c0.4,0.5,0.8,1,1.1,1.5C417.9,68.3,419.7,66.6,421.1,64.5z"/>
	<polygon class="st2" points="403.9,77.6 403.9,74.3 408,74.3 408,72.6 403.9,72.6 403.9,69.9 408.5,69.9 408.5,68.1 397.5,68.1 
		397.5,69.9 402,69.9 402,72.6 398.1,72.6 398.1,74.3 402,74.3 402,77.6 397.2,77.6 397.2,79.3 408.9,79.3 408.9,77.6 407,77.6 	"/>
	<path class="st2" d="M406.3,74.5l-1.3,0.7c0.7,0.7,1.4,1.5,2,2.4l1.3-0.8C407.7,76,407,75.2,406.3,74.5z"/>
	<path class="st2" d="M231.5,18.2c-14.8-2.3-29.6,1.2-41.7,10c-12.1,8.8-20,21.7-22.4,36.5c-0.1,0.5,0.3,1,0.8,1.1
		c0.5,0.1,1-0.3,1.1-0.8c2.2-14.2,9.9-26.7,21.6-35.2s26-11.9,40.2-9.6c29.4,4.7,49.5,32.4,44.8,61.8c-2.2,14.2-9.9,26.7-21.6,35.2
		s-26,11.9-40.2,9.6c-23-3.7-41-21.6-44.8-44.5c-0.1-0.5-0.7-0.9-1.2-0.8s-0.9,0.7-0.8,1.2c3.9,23.8,22.6,42.3,46.4,46.1
		c3,0.5,5.9,0.7,8.9,0.7c11.7,0,23.1-3.7,33-10.7c12.1-8.8,20-21.7,22.4-36.5C282.9,51.8,262,23.1,231.5,18.2z"/>
	<path class="st2" d="M207.1,73.1c0.2,0.1,0.3,0.3,0.4,0.5c2.2-1,2.9-2.9,3.2-5.4h2.7c-0.1,2.8-0.3,3.9-0.5,4.1
		c-0.1,0.1-0.3,0.2-0.5,0.2c-0.2,0-0.9,0-1.6-0.1c0.1,0.2,0.2,0.4,0.2,0.6c0.7,0,1.3,0.1,1.7,0c0.3,0,0.6-0.1,0.8-0.3
		c0.3-0.4,0.5-1.5,0.6-4.9c0,0.2,0-0.2,0-0.2H208v0.6h2C209.8,70.4,209.2,72.2,207.1,73.1z"/>
	<path class="st2" d="M201.3,73.6c1.4-0.4,3.4-0.9,5.2-1.4c0.2,0.3,0.3,0.5,0.4,0.8l0.9-0.5c-0.5-1.1-1.3-2-2.2-2.8L205,70
		c0.5,0.4,0.9,0.9,1.3,1.5c-1,0.3-2.1,0.5-3,0.8l-0.1-3.6c1.4-0.3,2.8-0.7,4.2-1.2l-0.6-0.5c-1.2,0.5-2.4,0.9-3.7,1.2l-0.7-0.2
		l0.1,4.6c-0.5,0.1-1,0.2-1.4,0.3L201.3,73.6z"/>
	<path class="st2" d="M216.4,75.9h6.2v3.5c0,0.2,0,0.3-0.4,0.3c-0.4,0-1.2,0-2.5,0c0.1,0.2,0.3,0.4,0.3,0.7c0.9,0,1.8,0,2.7-0.1
		c0.4-0.1,0.7-0.4,0.6-0.8V76h6.2l0.1-0.8h-6.2v-0.7c1.4-0.6,2.7-1.4,3.9-2.4l-0.5-0.4h-0.2h-7.7v0.7h6.9c-0.9,0.7-1.8,1.2-2.8,1.6
		h-0.4v1.2h-6.2V75.9z"/>
	<path class="st2" d="M237.7,66.7v2.7h-5.6v6.8h0.7v-1h4.8v5h0.7v-5h4.8v0.9h0.7v-6.8l-5.4,0.1v-2.7H237.7z M237.6,74.6h-4.8v-4.4
		h4.8V74.6z M243.2,70.2v4.4h-4.8v-4.4H243.2z"/>
	<path class="st2" d="M216.9,72.5h0.7l0-2.6h11v2.5h0.7v-3.2h-2.5c0.6-0.7,1.2-1.4,1.7-2.2l-0.7-0.3c-0.5,0.9-1.1,1.7-1.8,2.5h-2.8
		l0.5-0.2c-0.3-0.8-0.7-1.6-1.2-2.4l-0.6,0.2c0.5,0.7,0.9,1.5,1.2,2.4h-3.4L220,69c-0.4-0.8-0.9-1.5-1.5-2.1l-0.6,0.3
		c0.5,0.6,1,1.3,1.4,2.1h-2.4V72.5z"/>
	<path class="st2" d="M213,80.2v-6h-9.8v6.1h0.7v-0.6h8.4v0.5H213z M208.4,74.8h3.9v1.8h-3.9V74.8z M207.7,79.1h-3.8v-1.9h3.8V79.1z
		 M207.7,76.6h-3.8v-1.8h3.8V76.6z M208.4,79.1v-1.9h3.9v1.9H208.4z"/>
	<path class="st2" d="M329,73.2h-7.5l-4.2-8.2c-0.7-1.5-2.5-2-4-1.3c-1.5,0.8-2,2.6-1.3,4.1l2.8,5.4h-6.5c-0.1-0.2-0.2-0.3-0.4-0.5
		l-3.8-3.9c-0.8-0.9-2.1-1.1-3.2-0.7c-1.1,0.5-1.8,1.6-1.8,2.8v5.2c0,1.7,1.3,3,3,3h12.8l-2.7,5.3c-0.8,1.5-0.2,3.3,1.3,4.1
		c0.4,0.2,0.9,0.3,1.4,0.3c1.1,0,2.1-0.6,2.7-1.6l4.1-8.1h7.5c1.7-0.1,2.9-1.5,2.8-3.2C331.7,74.5,330.5,73.3,329,73.2z"/>
	<rect x="284.3" y="73.8" class="st2" width="3.7" height="3.7"/>
	<rect x="291.2" y="73.8" class="st2" width="3.7" height="3.7"/>
	<path class="st2" d="M57.5,17.5c-30.9,0-56,25.1-56,56c0,30.9,25.1,56,56,56s56-25.1,56-56C113.5,42.6,88.4,17.5,57.5,17.5z
		 M57.5,127.5c-29.8,0-54-24.2-54-54s24.2-54,54-54s54,24.2,54,54S87.3,127.5,57.5,127.5z"/>
	<path class="st2" d="M38.2,80.3h0.7v-0.6h8.4v0.5H48v-6h-9.8V80.3z M43.4,74.8h3.9v1.8h-3.9V74.8z M43.4,77.2h3.9v1.9h-3.9V77.2z
		 M38.9,74.8h3.8v1.8h-3.8V74.8z M38.9,77.2h3.8v1.9h-3.8V77.2z"/>
	<path class="st2" d="M41.9,72.9l0.9-0.4c-0.5-1.1-1.3-2-2.2-2.8L40,69.9c0.5,0.4,0.9,0.9,1.3,1.5c-1,0.3-2.1,0.5-3,0.8l-0.1-3.6
		c1.4-0.3,2.8-0.7,4.2-1.2l-0.6-0.5c-1.2,0.5-2.4,0.9-3.7,1.2l-0.7-0.2l0.1,4.6c-0.5,0.1-1,0.2-1.4,0.3l0.2,0.7
		c1.4-0.4,3.4-0.9,5.2-1.4C41.7,72.4,41.8,72.6,41.9,72.9z"/>
	<path class="st2" d="M52.6,69.9h11v2.5h0.7v-3.2h-2.5c0.6-0.7,1.2-1.4,1.7-2.2l-0.7-0.3c-0.5,0.9-1.1,1.7-1.8,2.5h-2.8l0.5-0.2
		c-0.3-0.8-0.7-1.6-1.2-2.4l-0.6,0.2c0.5,0.7,0.9,1.5,1.2,2.4h-3.4L55,69c-0.4-0.8-0.9-1.5-1.5-2.1l-0.6,0.3c0.5,0.6,1,1.3,1.4,2.1
		h-2.4v3.2h0.7C52.6,72.4,52.6,69.9,52.6,69.9z"/>
	<path class="st2" d="M49.1,67.6H43v0.6h2c-0.2,2.2-0.8,4-2.9,4.9c0.2,0.1,0.3,0.3,0.5,0.5c2.2-1,2.9-2.9,3.2-5.4h2.7
		c-0.1,2.8-0.3,3.9-0.5,4.1c-0.1,0.1-0.3,0.2-0.5,0.2s-0.9,0-1.6-0.1c0.1,0.2,0.2,0.4,0.2,0.6c0.7,0,1.3,0.1,1.7,0
		c0.3,0,0.6-0.1,0.8-0.3c0.3-0.4,0.5-1.5,0.6-4.9C49.1,68,49.1,67.6,49.1,67.6z"/>
	<rect x="74.8" y="71.5" class="st2" width="0.7" height="6.1"/>
	<path class="st2" d="M77.4,66.9l-0.8-0.3c-0.4,0.9-0.9,1.7-1.5,2.6h-4.7l0.7-0.3c-0.4-0.8-1-1.5-1.6-2.2L68.9,67
		c0.6,0.7,1.1,1.4,1.5,2.2h-4v0.7h13.2v-0.7l-3.7,0C76.4,68.5,76.9,67.7,77.4,66.9z"/>
	<path class="st2" d="M78.5,71h-0.7v8.3c0,0.2-0.1,0.3-0.3,0.3s-1.1,0-2.1,0c0.1,0.2,0.2,0.5,0.3,0.7c0.8,0,1.5,0,2.3-0.1
		c0.4-0.1,0.6-0.5,0.5-0.9V71z"/>
	<path class="st2" d="M67.4,71.4v8.9h0.7v-3.4h3.8v2.4c0,0.2-0.1,0.3-0.3,0.3c-0.2,0-0.9,0-1.8,0c0.1,0.2,0.2,0.4,0.3,0.7
		c0.7,0.1,1.4,0,2.1-0.1c0.3-0.1,0.5-0.5,0.5-0.8l-0.1-8H67.4z M71.9,76.3h-3.8v-1.8h3.8V76.3z M71.9,73.8h-3.8V72h3.8V73.8z"/>
	<path class="st2" d="M58.4,74.5c1.4-0.6,2.7-1.4,3.9-2.4l-0.5-0.4h-0.2h-7.7v0.7h6.9C60,73,59.1,73.6,58.1,74h-0.4v1.2h-6.2v0.7
		h6.2v3.5c0,0.2,0,0.3-0.4,0.3c-0.4,0-1.2,0-2.5,0c0.1,0.2,0.3,0.4,0.3,0.7c0.9,0,1.8,0,2.7-0.1c0.4-0.1,0.7-0.4,0.6-0.8V76h6.2
		v-0.8h-6.2V74.5z"/>
	<path class="st2" d="M170.7,75.6c-0.5-1.2-1.5-2.2-2.7-2.4h-7.5l-4.2-8.2c-0.7-1.5-2.5-2-4-1.3c-1.5,0.8-2,2.6-1.3,4.1l2.8,5.4
		h-6.5c-0.1-0.2-0.2-0.3-0.4-0.5l-3.8-3.9c-0.8-0.9-2.1-1.1-3.2-0.7c-1.1,0.5-1.8,1.6-1.8,2.8v5.2c0,1.7,1.3,3,3,3h12.8l-2.7,5.3
		c-0.8,1.5-0.2,3.3,1.3,4.1c0.4,0.2,0.9,0.3,1.4,0.3c1.1,0,2.1-0.6,2.7-1.6l4.1-8.1h7.5C169.8,78.8,170.9,77.2,170.7,75.6z"/>
	<rect x="122.5" y="73.8" class="st2" width="3.7" height="3.7"/>
	<rect x="129.4" y="73.8" class="st2" width="3.7" height="3.7"/>
</g>
</svg>
